<svg width="79" height="86" viewBox="0 0 79 86" fill="none" xmlns="http://www.w3.org/2000/svg">
<ellipse cx="39.5" cy="43" rx="39.5" ry="43" fill="white"/>
<mask id="path-2-outside-1_26_4" maskUnits="userSpaceOnUse" x="0" y="0" width="79" height="81" fill="black">
<rect fill="white" width="79" height="81"/>
<path d="M19.9578 73.3736C13.8927 68.8444 9.31963 62.3264 6.90678 54.7721C4.49392 47.2177 4.36777 39.0229 6.54675 31.3851C8.72572 23.7473 13.0956 17.0668 19.0179 12.3197C24.9402 7.57263 32.1045 5.00781 39.464 5.00002C46.8234 4.99222 53.9923 7.54185 59.9231 12.2764C65.854 17.0109 70.2358 23.6821 72.4285 31.3153C74.6212 38.9485 74.5097 47.1435 72.1105 54.703C69.7112 62.2624 65.1498 68.7901 59.0928 73.3321L58.88 72.9971C64.8712 68.5044 69.383 62.0476 71.7562 54.5703C74.1294 47.0929 74.2397 38.9869 72.0708 31.4366C69.902 23.8863 65.5677 17.2875 59.7013 12.6045C53.8349 7.92137 46.7439 5.39944 39.4644 5.40715C32.1848 5.41486 25.0983 7.95182 19.2404 12.6473C13.3824 17.3428 9.05996 23.9508 6.90465 31.5056C4.74934 39.0605 4.87413 47.1663 7.26077 54.6386C9.64742 62.1109 14.1708 68.5581 20.1701 73.0381L19.9578 73.3736Z"/>
</mask>
<path d="M19.9578 73.3736C13.8927 68.8444 9.31963 62.3264 6.90678 54.7721C4.49392 47.2177 4.36777 39.0229 6.54675 31.3851C8.72572 23.7473 13.0956 17.0668 19.0179 12.3197C24.9402 7.57263 32.1045 5.00781 39.464 5.00002C46.8234 4.99222 53.9923 7.54185 59.9231 12.2764C65.854 17.0109 70.2358 23.6821 72.4285 31.3153C74.6212 38.9485 74.5097 47.1435 72.1105 54.703C69.7112 62.2624 65.1498 68.7901 59.0928 73.3321L58.88 72.9971C64.8712 68.5044 69.383 62.0476 71.7562 54.5703C74.1294 47.0929 74.2397 38.9869 72.0708 31.4366C69.902 23.8863 65.5677 17.2875 59.7013 12.6045C53.8349 7.92137 46.7439 5.39944 39.4644 5.40715C32.1848 5.41486 25.0983 7.95182 19.2404 12.6473C13.3824 17.3428 9.05996 23.9508 6.90465 31.5056C4.74934 39.0605 4.87413 47.1663 7.26077 54.6386C9.64742 62.1109 14.1708 68.5581 20.1701 73.0381L19.9578 73.3736Z" fill="#4D02CE"/>
<path d="M19.9578 73.3736C13.8927 68.8444 9.31963 62.3264 6.90678 54.7721C4.49392 47.2177 4.36777 39.0229 6.54675 31.3851C8.72572 23.7473 13.0956 17.0668 19.0179 12.3197C24.9402 7.57263 32.1045 5.00781 39.464 5.00002C46.8234 4.99222 53.9923 7.54185 59.9231 12.2764C65.854 17.0109 70.2358 23.6821 72.4285 31.3153C74.6212 38.9485 74.5097 47.1435 72.1105 54.703C69.7112 62.2624 65.1498 68.7901 59.0928 73.3321L58.88 72.9971C64.8712 68.5044 69.383 62.0476 71.7562 54.5703C74.1294 47.0929 74.2397 38.9869 72.0708 31.4366C69.902 23.8863 65.5677 17.2875 59.7013 12.6045C53.8349 7.92137 46.7439 5.39944 39.4644 5.40715C32.1848 5.41486 25.0983 7.95182 19.2404 12.6473C13.3824 17.3428 9.05996 23.9508 6.90465 31.5056C4.74934 39.0605 4.87413 47.1663 7.26077 54.6386C9.64742 62.1109 14.1708 68.5581 20.1701 73.0381L19.9578 73.3736Z" stroke="white" stroke-width="10" mask="url(#path-2-outside-1_26_4)"/>
<path d="M20.3907 61.3782C20.0258 61.3782 20.7435 51.7611 29.2964 50.3257C26.254 71.7608 49.5473 50.0614 55.4799 52.9094C44.0205 58.1186 46.1775 65.6016 27.3463 63.8184C42.8622 63.0689 45.5923 55.0172 55.4799 52.9094C45.5923 54.5582 39.7215 63.1007 23.9013 63.1007C22.6844 55.1562 26.0544 55.206 29.2964 50.3257C24.7626 55.3496 23.0401 54.2695 23.0401 62.8136L20.3907 61.3782Z" fill="#A9BF84"/>
<path d="M56.4847 53.4835C47.0111 55.6305 49.8527 61.9688 35.0974 64.9667C33.272 65.7161 42.0043 65.6765 43.1596 64.9667C54.1881 58.1906 47.7175 58.3639 56.4847 53.4835Z" fill="#A9BF84"/>
<path d="M57.7765 54.7754C50.7431 56.4979 53.3268 60.7405 44.2839 65.2019C58.4308 62.6537 48.303 61.8298 57.7765 54.7754Z" fill="#A9BF84"/>
<path d="M29.2964 50.3257C20.7435 51.7611 20.0258 61.3782 20.3907 61.3782L23.0401 62.8136C23.0401 54.2695 24.7626 55.3496 29.2964 50.3257ZM29.2964 50.3257C26.0544 55.206 22.6844 55.1562 23.9013 63.1007C39.7215 63.1007 45.5923 54.5582 55.4799 52.9094M29.2964 50.3257C26.254 71.7608 49.5473 50.0614 55.4799 52.9094M55.4799 52.9094C44.0205 58.1186 46.1775 65.6016 27.3463 63.8184C42.8622 63.0689 45.5923 55.0172 55.4799 52.9094ZM35.0974 64.9667C49.8527 61.9688 47.0111 55.6305 56.4847 53.4835C47.7175 58.3639 54.1881 58.1906 43.1596 64.9667C42.0043 65.6765 33.272 65.7161 35.0974 64.9667ZM57.7765 54.7754C50.7431 56.4979 53.3268 60.7405 44.2839 65.2019C58.4308 62.6537 48.303 61.8298 57.7765 54.7754Z" stroke="#4D02CE" stroke-width="0.5"/>
<path d="M25.9613 17.0277C24.0953 18.4631 26.9182 18.5588 27.8273 18.7502C27.4445 18.2717 27.239 16.1665 25.9613 17.0277Z" fill="#F06073"/>
<path d="M28.9756 14.5875C24.3824 16.0229 30.2436 18.4907 29.9804 17.8889C28.9756 15.5923 30.5545 14.3004 28.9756 14.5875Z" fill="#F06073"/>
<path d="M32.7076 18.7502C30.2675 17.8889 29.5498 13.1521 31.5593 13.2957C32.8512 13.5828 32.1335 15.0181 32.5641 16.1665L32.9947 17.3148C33.1382 18.3195 33.0521 18.176 32.7076 18.7502Z" fill="#F06073"/>
<path d="M29.8368 18.7502C27.2531 21.908 31.4158 21.7645 32.1335 20.1855L29.8368 18.7502Z" fill="#F06073"/>
<path d="M45.2345 25.3908C43.7592 25.5784 40.1382 25.4559 39.5975 22.4822C40.1717 23.0563 40.8893 23.6305 41.1764 23.1999C41.7506 22.3386 41.8941 20.3291 44.3343 20.6162C45.052 20.7006 46.1524 23.1042 46.7744 23.9176C45.6261 21.6209 45.052 19.0372 48.2098 18.176C50.9371 18.0325 51.5318 20.9438 51.3677 21.7645C51.1928 22.639 50.4317 23.4603 49.6365 24.066C51.1004 23.2599 52.3587 22.9878 53.2337 25.0659C53.8079 27.6496 51.7983 27.6496 50.7935 27.6496C50.6058 27.612 50.4328 27.5647 50.2726 27.5091C51.2223 27.9749 51.3208 27.6223 51.2242 30.5204C50.9371 33.3911 47.2051 32.2428 47.2051 30.8074L47.4393 27.059C47.0547 32.0184 45.6643 31.277 44.9084 31.0945C40.8731 30.1205 42.6382 25.909 45.2345 25.3908Z" fill="#F06073"/>
<path d="M39.0233 36.1184C36.2961 38.8456 38.4492 38.5585 38.8798 38.2715C41.1764 39.1327 39.8846 36.9796 39.0233 36.1184Z" fill="#F06073"/>
<path d="M25.9613 17.0277C24.0953 18.4631 26.9182 18.5588 27.8273 18.7502C27.4445 18.2717 27.239 16.1665 25.9613 17.0277Z" stroke="#4D02CE" stroke-width="0.5"/>
<path d="M28.9756 14.5875C24.3824 16.0229 30.2436 18.4907 29.9804 17.8889C28.9756 15.5923 30.5545 14.3004 28.9756 14.5875Z" stroke="#4D02CE" stroke-width="0.5"/>
<path d="M32.7076 18.7502C30.2675 17.8889 29.5498 13.1521 31.5593 13.2957C32.8512 13.5828 32.1335 15.0181 32.5641 16.1665L32.9947 17.3148C33.1382 18.3195 33.0521 18.176 32.7076 18.7502Z" stroke="#4D02CE" stroke-width="0.5"/>
<path d="M29.8368 18.7502C27.2531 21.908 31.4158 21.7645 32.1335 20.1855L29.8368 18.7502Z" stroke="#4D02CE" stroke-width="0.5"/>
<path d="M45.2345 25.3908C43.7592 25.5784 40.1382 25.4559 39.5975 22.4822C40.1717 23.0563 40.8893 23.6305 41.1764 23.1999C41.7506 22.3386 41.8941 20.3291 44.3343 20.6162C45.052 20.7006 46.1524 23.1042 46.7744 23.9176C45.6261 21.6209 45.052 19.0372 48.2098 18.176C50.9371 18.0325 51.5318 20.9438 51.3677 21.7645C51.1928 22.639 50.4317 23.4603 49.6365 24.066C51.1004 23.2599 52.3587 22.9878 53.2337 25.0659C53.8079 27.6496 51.7983 27.6496 50.7935 27.6496C50.6058 27.612 50.4328 27.5647 50.2726 27.5091C51.2223 27.9749 51.3208 27.6223 51.2242 30.5204C50.9371 33.3911 47.2051 32.2428 47.2051 30.8074L47.4393 27.059C47.0547 32.0184 45.6643 31.277 44.9084 31.0945C40.8731 30.1205 42.6382 25.909 45.2345 25.3908Z" stroke="#4D02CE" stroke-width="0.5"/>
<path d="M39.0233 36.1184C36.2961 38.8456 38.4492 38.5585 38.8798 38.2715C41.1764 39.1327 39.8846 36.9796 39.0233 36.1184Z" stroke="#4D02CE" stroke-width="0.5"/>
<path d="M19.5952 61.2345C20.887 45.4452 33.662 53.0528 34.2361 48.0289C34.2361 45.6174 33.4706 43.1007 33.0878 42.1438M34.6668 51.4738C34.6668 48.7466 35.528 45.3017 33.0878 42.1438M33.0878 42.1438L34.2361 41.2826M33.0878 42.1438C32.6572 42.5744 26.6286 45.3017 27.0592 40.2778C25.4803 39.9907 25.7673 39.1295 26.198 38.8424C25.6238 38.6127 25.1932 38.1247 25.7673 37.2635C25.4311 36.9402 25.1461 36.6716 24.9061 36.4463M24.9061 36.4463C22.4822 34.1706 24.6449 36.3026 24.9061 30.9478C24.7626 28.9382 24.3319 30.9478 24.4755 26.7851M24.9061 36.4463C24.9061 35.6845 25.7673 35.541 26.198 35.8281M24.4755 26.7851C21.6047 24.4885 23.6142 22.6703 24.1884 21.9048C24.7626 21.3306 23.9013 20.0388 26.3415 19.034M24.4755 26.7851C24.9061 25.4933 24.4755 24.345 26.0544 23.1967C27.6333 23.0531 26.485 24.345 29.2123 25.7804M29.2123 25.7804C37.5375 25.6368 34.3797 25.4933 38.5423 28.077C39.5471 28.5076 42.1786 27.8377 42.4179 27.7899M29.2123 25.7804C29.93 26.9287 32.5137 27.2157 33.0878 27.0722C36.6763 29.6559 38.5423 31.3784 42.7049 30.0865C45.2886 34.2492 52.8962 41.5696 53.0398 26.9287M33.1446 27.0722C38.2552 32.5267 34.6668 32.8138 40.9825 34.1056M40.9825 34.1056C40.6954 35.541 39.4035 35.7324 38.8294 36.1152C38.5997 36.1152 38.1595 36.1152 37.9682 36.1152M40.9825 34.1056C42.4179 48.7466 45.4322 48.316 46.437 49.6078C52.8962 54.2011 57.3459 50.182 59.0684 58.2202M40.9825 34.1056C43.8349 37.5919 46.3017 39.7214 48.4009 41.2826M56.9057 53.7705C58.2072 40.2778 52.9569 44.6707 48.4009 41.2826M48.4009 41.2826C52.4656 38.8424 46.437 38.8424 47.4417 35.0447M38.8294 53.0528C39.6906 53.1963 39.5471 53.0528 39.5471 52.7657C41.0399 52.7657 42.5614 52.7657 43.1356 52.7657M33.662 16.8809C37.9107 16.5364 42.4179 16.4503 45.1451 21.3306" stroke="#4D02CE" stroke-width="0.5"/>
<g filter="url(#filter0_d_26_4)">
<path d="M28.5567 76.3706L28.2467 74.5506H26.8367L26.5367 76.3706H25.7367L27.0167 69.3706H28.0767L29.3567 76.3706H28.5567ZM27.5467 70.3806L26.9467 73.9106H28.1367L27.5467 70.3806ZM30.9423 73.2006V76.3706H30.1423V69.3706H32.5423V70.0106H30.9423V72.5606H32.3923V73.2006H30.9423ZM33.3747 76.3706V69.3706H34.6147C35.148 69.3706 35.5414 69.5439 35.7947 69.8906C36.048 70.2373 36.1747 70.7839 36.1747 71.5306V71.5806C36.1747 72.5939 35.928 73.2373 35.4347 73.5106L36.2647 76.3706H35.4447L34.6647 73.6906H34.1747V76.3706H33.3747ZM34.1747 73.0606H34.6147C35.128 73.0606 35.3847 72.6006 35.3847 71.6806V71.3806C35.3847 70.4673 35.128 70.0106 34.6147 70.0106H34.1747V73.0606ZM38.6621 76.5206C38.1154 76.5206 37.7154 76.3439 37.4621 75.9906C37.2154 75.6306 37.0921 75.0606 37.0921 74.2806V71.4606C37.0921 70.6806 37.2154 70.1139 37.4621 69.7606C37.7154 69.4006 38.1154 69.2206 38.6621 69.2206C39.2021 69.2206 39.5954 69.4006 39.8421 69.7606C40.0954 70.1206 40.2221 70.6873 40.2221 71.4606V74.2806C40.2221 75.0539 40.0954 75.6206 39.8421 75.9806C39.5954 76.3406 39.2021 76.5206 38.6621 76.5206ZM38.6621 75.8706C39.1754 75.8706 39.4321 75.3906 39.4321 74.4306V71.3106C39.4321 70.3506 39.1754 69.8706 38.6621 69.8706C38.3954 69.8706 38.1988 69.9873 38.0721 70.2206C37.9454 70.4539 37.8821 70.8173 37.8821 71.3106V74.4306C37.8821 74.9239 37.9454 75.2873 38.0721 75.5206C38.1988 75.7539 38.3954 75.8706 38.6621 75.8706ZM41.3434 76.3706V69.3706H42.7034C43.2501 69.3706 43.6501 69.5506 43.9034 69.9106C44.1568 70.2706 44.2834 70.8373 44.2834 71.6106V74.1306C44.2834 74.9039 44.1568 75.4706 43.9034 75.8306C43.6501 76.1906 43.2501 76.3706 42.7034 76.3706H41.3434ZM42.1434 75.7406H42.7034C43.2301 75.7406 43.4934 75.2639 43.4934 74.3106V71.4406C43.4934 70.4873 43.2301 70.0106 42.7034 70.0106H42.1434V75.7406ZM45.4059 76.3706V69.3706H46.2059V76.3706H45.4059ZM46.9665 70.0106V69.3706H49.6965V70.0106H48.7265V76.3706H47.9365V70.0106H46.9665ZM51.2548 73.2006V75.7306H52.9948V76.3706H50.4548V69.3706H52.9648V70.0106H51.2548V72.5606H52.8148V73.2006H51.2548Z" fill="#4D02CE"/>
</g>
<defs>
<filter id="filter0_d_26_4" x="23.7367" y="69.2207" width="31.2581" height="11.2998" filterUnits="userSpaceOnUse" color-interpolation-filters="sRGB">
<feFlood flood-opacity="0" result="BackgroundImageFix"/>
<feColorMatrix in="SourceAlpha" type="matrix" values="0 0 0 0 0 0 0 0 0 0 0 0 0 0 0 0 0 0 127 0" result="hardAlpha"/>
<feOffset dy="2"/>
<feGaussianBlur stdDeviation="1"/>
<feComposite in2="hardAlpha" operator="out"/>
<feColorMatrix type="matrix" values="0 0 0 0 0.662745 0 0 0 0 0.74902 0 0 0 0 0.517647 0 0 0 0.5 0"/>
<feBlend mode="normal" in2="BackgroundImageFix" result="effect1_dropShadow_26_4"/>
<feBlend mode="normal" in="SourceGraphic" in2="effect1_dropShadow_26_4" result="shape"/>
</filter>
</defs>
</svg>
