<svg width="244" height="265" viewBox="0 0 244 265" fill="none" xmlns="http://www.w3.org/2000/svg">
<ellipse cx="121.708" cy="132.492" rx="121.708" ry="132.492" fill="white"/>
<mask id="path-2-outside-1_42_229" maskUnits="userSpaceOnUse" x="0.406006" y="0.40625" width="243" height="248" fill="black">
<rect fill="white" x="0.406006" y="0.40625" width="243" height="248"/>
<path d="M61.4943 226.08C42.8064 212.125 28.7157 192.041 21.2812 168.765C13.8467 145.488 13.458 120.238 20.1719 96.7044C26.8858 73.1707 40.3504 52.5866 58.5983 37.9598C76.8461 23.3331 98.9209 15.4303 121.597 15.4063C144.273 15.3823 166.362 23.2382 184.636 37.8263C202.91 52.4144 216.412 72.9699 223.168 96.4894C229.924 120.009 229.581 145.26 222.188 168.552C214.795 191.844 200.74 211.957 182.078 225.952L181.422 224.92C199.882 211.077 213.784 191.182 221.096 168.143C228.409 145.104 228.748 120.127 222.066 96.8631C215.383 73.5991 202.028 53.2668 183.952 38.8372C165.877 24.4076 144.028 16.637 121.598 16.6608C99.1683 16.6845 77.3333 24.5014 59.2837 38.9693C41.234 53.4372 27.9156 73.7977 21.2746 97.0758C14.6337 120.354 15.0182 145.33 22.3719 168.353C29.7257 191.377 43.6633 211.242 62.1482 225.046L61.4943 226.08Z"/>
</mask>
<path d="M61.4943 226.08C42.8064 212.125 28.7157 192.041 21.2812 168.765C13.8467 145.488 13.458 120.238 20.1719 96.7044C26.8858 73.1707 40.3504 52.5866 58.5983 37.9598C76.8461 23.3331 98.9209 15.4303 121.597 15.4063C144.273 15.3823 166.362 23.2382 184.636 37.8263C202.91 52.4144 216.412 72.9699 223.168 96.4894C229.924 120.009 229.581 145.26 222.188 168.552C214.795 191.844 200.74 211.957 182.078 225.952L181.422 224.92C199.882 211.077 213.784 191.182 221.096 168.143C228.409 145.104 228.748 120.127 222.066 96.8631C215.383 73.5991 202.028 53.2668 183.952 38.8372C165.877 24.4076 144.028 16.637 121.598 16.6608C99.1683 16.6845 77.3333 24.5014 59.2837 38.9693C41.234 53.4372 27.9156 73.7977 21.2746 97.0758C14.6337 120.354 15.0182 145.33 22.3719 168.353C29.7257 191.377 43.6633 211.242 62.1482 225.046L61.4943 226.08Z" fill="#4D02CE"/>
<path d="M61.4943 226.08C42.8064 212.125 28.7157 192.041 21.2812 168.765C13.8467 145.488 13.458 120.238 20.1719 96.7044C26.8858 73.1707 40.3504 52.5866 58.5983 37.9598C76.8461 23.3331 98.9209 15.4303 121.597 15.4063C144.273 15.3823 166.362 23.2382 184.636 37.8263C202.91 52.4144 216.412 72.9699 223.168 96.4894C229.924 120.009 229.581 145.26 222.188 168.552C214.795 191.844 200.74 211.957 182.078 225.952L181.422 224.92C199.882 211.077 213.784 191.182 221.096 168.143C228.409 145.104 228.748 120.127 222.066 96.8631C215.383 73.5991 202.028 53.2668 183.952 38.8372C165.877 24.4076 144.028 16.637 121.598 16.6608C99.1683 16.6845 77.3333 24.5014 59.2837 38.9693C41.234 53.4372 27.9156 73.7977 21.2746 97.0758C14.6337 120.354 15.0182 145.33 22.3719 168.353C29.7257 191.377 43.6633 211.242 62.1482 225.046L61.4943 226.08Z" stroke="white" stroke-width="30" mask="url(#path-2-outside-1_42_229)"/>
<path d="M62.8264 189.12C61.7019 189.12 63.9133 159.488 90.2666 155.065C80.8925 221.111 152.664 154.251 170.944 163.026C135.635 179.077 142.281 202.133 84.2579 196.639C132.066 194.329 140.478 169.52 170.944 163.026C140.478 168.106 122.389 194.427 73.6433 194.427C69.8937 169.949 80.2775 170.102 90.2666 155.065C76.297 170.545 70.9897 167.217 70.9897 193.543L62.8264 189.12Z" fill="#A9BF84"/>
<path d="M174.04 164.795C144.85 171.41 153.605 190.94 108.141 200.177C102.516 202.486 129.423 202.364 132.982 200.177C166.963 179.298 147.026 179.832 174.04 164.795Z" fill="#A9BF84"/>
<path d="M178.02 168.775C156.349 174.083 164.31 187.155 136.446 200.902C180.036 193.05 148.83 190.512 178.02 168.775Z" fill="#A9BF84"/>
<path d="M90.2666 155.065C63.9133 159.488 61.7019 189.12 62.8264 189.12L70.9897 193.543C70.9897 167.217 76.297 170.545 90.2666 155.065ZM90.2666 155.065C80.2775 170.102 69.8937 169.949 73.6433 194.427C122.389 194.427 140.478 168.106 170.944 163.026M90.2666 155.065C80.8925 221.111 152.664 154.251 170.944 163.026M170.944 163.026C135.635 179.077 142.281 202.133 84.2579 196.639C132.066 194.329 140.478 169.52 170.944 163.026ZM108.141 200.177C153.605 190.94 144.85 171.41 174.04 164.795C147.026 179.832 166.963 179.298 132.982 200.177C129.423 202.364 102.516 202.486 108.141 200.177ZM178.02 168.775C156.349 174.083 164.31 187.155 136.446 200.902C180.036 193.05 148.83 190.512 178.02 168.775Z" stroke="#4D02CE" stroke-width="1.5"/>
<path d="M79.9891 52.467C74.2395 56.8897 82.9376 57.1846 85.7386 57.7743C84.5592 56.3 83.926 49.8133 79.9891 52.467Z" fill="#F06073"/>
<path d="M89.2769 44.9483C75.1241 49.3711 93.1839 56.9747 92.3728 55.1206C89.2769 48.0442 94.1419 44.0638 89.2769 44.9483Z" fill="#F06073"/>
<path d="M100.776 57.7743C93.2573 55.1206 91.046 40.5256 97.2378 40.9679C101.218 41.8524 99.0069 46.2751 100.334 49.8133L101.661 53.3515C102.103 56.4474 101.837 56.0052 100.776 57.7743Z" fill="#F06073"/>
<path d="M91.9305 57.7743C83.9696 67.5043 96.7955 67.0621 99.0069 62.197L91.9305 57.7743Z" fill="#F06073"/>
<path d="M139.374 78.2354C134.828 78.8135 123.671 78.4362 122.005 69.2734C123.774 71.0425 125.986 72.8116 126.87 71.4848C128.639 68.8312 129.082 62.6393 136.6 63.5239C138.812 63.784 142.202 71.19 144.119 73.6962C140.581 66.6198 138.812 58.6588 148.542 56.0052C156.945 55.5629 158.777 64.5333 158.272 67.0621C157.733 69.7567 155.388 72.2872 152.937 74.1534C157.448 71.6697 161.325 70.8314 164.021 77.2344C165.79 85.1953 159.599 85.1953 156.503 85.1953C155.924 85.0796 155.391 84.9337 154.897 84.7624C157.824 86.1977 158.127 85.1114 157.829 94.0408C156.945 102.886 145.446 99.3481 145.446 94.9254L146.168 83.3756C144.982 98.6568 140.698 96.3721 138.369 95.8099C125.936 92.8087 131.374 79.8323 139.374 78.2354Z" fill="#F06073"/>
<path d="M120.236 111.29C111.833 119.693 118.467 118.808 119.794 117.924C126.87 120.577 122.89 113.943 120.236 111.29Z" fill="#F06073"/>
<path d="M79.9891 52.467C74.2395 56.8897 82.9376 57.1846 85.7386 57.7743C84.5592 56.3 83.926 49.8133 79.9891 52.467Z" stroke="#4D02CE" stroke-width="1.5"/>
<path d="M89.2769 44.9483C75.1241 49.3711 93.1839 56.9747 92.3728 55.1206C89.2769 48.0442 94.1419 44.0638 89.2769 44.9483Z" stroke="#4D02CE" stroke-width="1.5"/>
<path d="M100.776 57.7743C93.2573 55.1206 91.046 40.5256 97.2378 40.9679C101.218 41.8524 99.0069 46.2751 100.334 49.8133L101.661 53.3515C102.103 56.4474 101.837 56.0052 100.776 57.7743Z" stroke="#4D02CE" stroke-width="1.5"/>
<path d="M91.9305 57.7743C83.9696 67.5043 96.7955 67.0621 99.0069 62.197L91.9305 57.7743Z" stroke="#4D02CE" stroke-width="1.5"/>
<path d="M139.374 78.2354C134.828 78.8135 123.671 78.4362 122.005 69.2734C123.774 71.0425 125.986 72.8116 126.87 71.4848C128.639 68.8312 129.082 62.6393 136.6 63.5239C138.812 63.784 142.202 71.19 144.119 73.6962C140.581 66.6198 138.812 58.6588 148.542 56.0052C156.945 55.5629 158.777 64.5333 158.272 67.0621C157.733 69.7567 155.388 72.2872 152.937 74.1534C157.448 71.6697 161.325 70.8314 164.021 77.2344C165.79 85.1953 159.599 85.1953 156.503 85.1953C155.924 85.0796 155.391 84.9337 154.897 84.7624C157.824 86.1977 158.127 85.1114 157.829 94.0408C156.945 102.886 145.446 99.3481 145.446 94.9254L146.168 83.3756C144.982 98.6568 140.698 96.3721 138.369 95.8099C125.936 92.8087 131.374 79.8323 139.374 78.2354Z" stroke="#4D02CE" stroke-width="1.5"/>
<path d="M120.236 111.29C111.833 119.693 118.467 118.808 119.794 117.924C126.87 120.577 122.89 113.943 120.236 111.29Z" stroke="#4D02CE" stroke-width="1.5"/>
<path d="M60.3748 188.678C64.3552 140.028 103.718 163.468 105.487 147.989C105.487 140.558 103.128 132.804 101.949 129.855M106.814 158.603C106.814 150.2 109.467 139.585 101.949 129.855M101.949 129.855L105.487 127.202M101.949 129.855C100.622 131.182 82.0462 139.585 83.373 124.106C78.508 123.221 79.3926 120.568 80.7194 119.683C78.9503 118.975 77.6235 117.472 79.3926 114.818C78.3565 113.822 77.4784 112.994 76.7389 112.3M76.7389 112.3C69.2705 105.288 75.9341 111.857 76.7389 95.3579C76.2966 89.1661 74.9698 95.3579 75.4121 82.5319M76.7389 112.3C76.7389 109.953 79.3926 109.511 80.7194 110.395M75.4121 82.5319C66.5666 75.4555 72.7584 69.8534 74.5275 67.4946C76.2966 65.7255 73.643 61.745 81.1617 58.6491M75.4121 82.5319C76.7389 78.5515 75.4121 75.0133 80.2771 71.4751C85.1421 71.0328 81.6039 75.0133 90.0072 79.436M90.0072 79.436C115.659 78.9938 105.929 78.5515 118.755 86.5124C121.851 87.8392 129.959 85.7753 130.696 85.6279M90.0072 79.436C92.2185 82.9742 100.179 83.8588 101.949 83.4165C113.005 91.3774 118.755 96.6847 131.581 92.7043C139.542 105.53 162.982 128.086 163.425 82.9742M102.124 83.4165C117.87 100.223 106.814 101.107 126.274 105.088M126.274 105.088C125.389 109.511 121.409 110.1 119.64 111.28C118.932 111.28 117.576 111.28 116.986 111.28M126.274 105.088C130.696 150.2 139.984 148.873 143.08 152.854C162.982 167.006 176.693 154.623 182 179.39M126.274 105.088C135.063 115.83 142.663 122.391 149.132 127.202M175.337 165.68C179.347 124.106 163.169 137.641 149.132 127.202M149.132 127.202C161.656 119.683 143.08 119.683 146.176 107.982M119.64 163.468C122.293 163.91 121.851 163.468 121.851 162.584C126.451 162.584 131.139 162.584 132.908 162.584M103.718 52.015C116.809 50.9535 130.696 50.6881 139.1 65.7255" stroke="#4D02CE" stroke-width="1.5"/>
<g filter="url(#filter0_d_42_229)">
<path d="M93.2537 230.422L92.4477 225.69H88.7817L88.0017 230.422H85.9217L89.2497 212.222H92.0057L95.3337 230.422H93.2537ZM90.6277 214.848L89.0677 224.026H92.1617L90.6277 214.848ZM99.4562 222.18V230.422H97.3762V212.222H103.616V213.886H99.4562V220.516H103.226V222.18H99.4562ZM105.78 230.422V212.222H109.004C110.391 212.222 111.414 212.673 112.072 213.574C112.731 214.475 113.06 215.897 113.06 217.838V217.968C113.06 220.603 112.419 222.275 111.136 222.986L113.294 230.422H111.162L109.134 223.454H107.86V230.422H105.78ZM107.86 221.816H109.004C110.339 221.816 111.006 220.62 111.006 218.228V217.448C111.006 215.073 110.339 213.886 109.004 213.886H107.86V221.816ZM119.528 230.812C118.106 230.812 117.066 230.353 116.408 229.434C115.766 228.498 115.446 227.016 115.446 224.988V217.656C115.446 215.628 115.766 214.155 116.408 213.236C117.066 212.3 118.106 211.832 119.528 211.832C120.932 211.832 121.954 212.3 122.596 213.236C123.254 214.172 123.584 215.645 123.584 217.656V224.988C123.584 226.999 123.254 228.472 122.596 229.408C121.954 230.344 120.932 230.812 119.528 230.812ZM119.528 229.122C120.862 229.122 121.53 227.874 121.53 225.378V217.266C121.53 214.77 120.862 213.522 119.528 213.522C118.834 213.522 118.323 213.825 117.994 214.432C117.664 215.039 117.5 215.983 117.5 217.266V225.378C117.5 226.661 117.664 227.605 117.994 228.212C118.323 228.819 118.834 229.122 119.528 229.122ZM126.499 230.422V212.222H130.035C131.457 212.222 132.497 212.69 133.155 213.626C133.814 214.562 134.143 216.035 134.143 218.046V224.598C134.143 226.609 133.814 228.082 133.155 229.018C132.497 229.954 131.457 230.422 130.035 230.422H126.499ZM128.579 228.784H130.035C131.405 228.784 132.089 227.545 132.089 225.066V217.604C132.089 215.125 131.405 213.886 130.035 213.886H128.579V228.784ZM137.062 230.422V212.222H139.142V230.422H137.062ZM141.119 213.886V212.222H148.217V213.886H145.695V230.422H143.641V213.886H141.119ZM152.269 222.18V228.758H156.793V230.422H150.189V212.222H156.715V213.886H152.269V220.516H156.325V222.18H152.269Z" fill="#4D02CE"/>
</g>
<defs>
<filter id="filter0_d_42_229" x="83.9216" y="211.832" width="74.8711" height="22.98" filterUnits="userSpaceOnUse" color-interpolation-filters="sRGB">
<feFlood flood-opacity="0" result="BackgroundImageFix"/>
<feColorMatrix in="SourceAlpha" type="matrix" values="0 0 0 0 0 0 0 0 0 0 0 0 0 0 0 0 0 0 127 0" result="hardAlpha"/>
<feOffset dy="2"/>
<feGaussianBlur stdDeviation="1"/>
<feComposite in2="hardAlpha" operator="out"/>
<feColorMatrix type="matrix" values="0 0 0 0 0.662745 0 0 0 0 0.74902 0 0 0 0 0.517647 0 0 0 0.5 0"/>
<feBlend mode="normal" in2="BackgroundImageFix" result="effect1_dropShadow_42_229"/>
<feBlend mode="normal" in="SourceGraphic" in2="effect1_dropShadow_42_229" result="shape"/>
</filter>
</defs>
</svg>
